<svg width="49" height="49" viewBox="0 0 49 49" fill="none" xmlns="http://www.w3.org/2000/svg">
<path d="M48.7281 24.3796C48.7307 20.3235 47.7206 16.3309 45.7894 12.7641C43.8583 9.19722 41.0672 6.16892 37.6693 3.95387C34.2715 1.73883 30.3744 0.407135 26.3316 0.0795818C22.2888 -0.247972 18.2281 0.438983 14.518 2.07813C10.8079 3.71728 7.5657 6.25676 5.08553 9.46621C2.60537 12.6757 0.965714 16.4535 0.315296 20.4571C-0.335123 24.4607 0.0242773 28.5633 1.3609 32.3928C2.69752 36.2224 4.96906 39.6576 7.96947 42.3869C8.0288 42.4574 8.09788 42.519 8.17462 42.5699C12.6299 46.5461 18.3928 48.7437 24.3644 48.7436C30.336 48.7435 36.0988 46.5458 40.554 42.5694C40.6303 42.5187 40.6991 42.4574 40.7582 42.3873C43.2695 40.1078 45.2759 37.3281 46.6485 34.2267C48.0211 31.1254 48.7295 27.7711 48.7281 24.3796ZM1.94912 24.3796C1.94656 20.6945 2.8526 17.0656 4.58703 13.8142C6.32146 10.5627 8.83078 7.7891 11.8928 5.73878C14.9549 3.68847 18.4752 2.42473 22.1422 2.05945C25.8091 1.69417 29.5096 2.2386 32.9159 3.64457C36.3223 5.05053 39.3294 7.27464 41.6712 10.12C44.013 12.9654 45.6171 16.3442 46.3415 19.9574C47.066 23.5706 46.8884 27.3066 45.8246 30.8348C44.7608 34.363 42.8435 37.5745 40.2424 40.185C37.8232 36.1338 33.9419 33.1652 29.3985 31.8914C31.5101 30.7681 33.1854 28.971 34.158 26.7859C35.1305 24.6008 35.3444 22.1532 34.7655 19.8325C34.1867 17.5119 32.8485 15.4514 30.9637 13.979C29.0789 12.5066 26.7558 11.7067 24.364 11.7067C21.9723 11.7067 19.6492 12.5066 17.7644 13.979C15.8796 15.4514 14.5413 17.5119 13.9625 19.8325C13.3837 22.1532 13.5976 24.6008 14.5701 26.7859C15.5426 28.971 17.218 30.7681 19.3296 31.8914C14.7863 33.1652 10.9049 36.1337 8.48565 40.1849C6.41155 38.1087 4.76675 35.6443 3.6452 32.9324C2.52365 30.2205 1.94732 27.3142 1.94912 24.3796ZM24.364 31.2015C22.6293 31.2015 20.9335 30.6871 19.4911 29.7233C18.0487 28.7595 16.9245 27.3897 16.2606 25.787C15.5968 24.1843 15.4231 22.4207 15.7615 20.7193C16.0999 19.0179 16.9353 17.455 18.162 16.2284C19.3886 15.0017 20.9515 14.1663 22.6529 13.8279C24.3543 13.4895 26.1179 13.6632 27.7206 14.327C29.3233 14.9909 30.6931 16.1151 31.6569 17.5575C32.6207 18.9999 33.1351 20.6957 33.1351 22.4304C33.1325 24.7559 32.2075 26.9853 30.5632 28.6296C28.9189 30.2739 26.6895 31.1989 24.364 31.2015ZM9.9563 41.536C11.4027 38.9899 13.498 36.8725 16.0289 35.3995C18.5597 33.9266 21.4357 33.1506 24.364 33.1506C27.2923 33.1506 30.1683 33.9266 32.6991 35.3996C35.2299 36.8726 37.3252 38.99 38.7716 41.5361C34.7389 44.9321 29.6362 46.7945 24.364 46.7945C19.0918 46.7944 13.989 44.932 9.9563 41.536Z" fill="#300FE8"/>
</svg>
